
<svg xmlns="http://www.w3.org/2000/svg" width="9" height="8" viewBox="0 0 9 8"><path fill="#f2a1a2ff" d="M3.195 6.934c-.127-.155-.223-.267-.316-.382-.542-.673-1.198-1.24-1.91-1.747-.182-.128-.387-.223-.605-.281-.1-.027-.294.046-.345.13-.051.082.013.235.052.35.019.057.093.096.142.143.702.675 1.402 1.353 2.108 2.025.227.215.461.426.708.622.408.324.82.262 1.11-.16.098-.145.169-.306.257-.457.433-.739.84-1.496 1.31-2.213.91-1.382 1.857-2.743 2.792-4.11.116-.165.241-.322.376-.473.198-.228.172-.303-.145-.36-.405-.074-.762.06-1.1.238-.628.33-1.143.788-1.592 1.307-.79.92-1.488 1.91-2.082 2.953-.348.609-.58 1.27-.683 1.954-.017.135-.044.269-.077.46z"></path></svg>