<svg xmlns="http://www.w3.org/2000/svg" fill="none" viewBox="0 0 100 42" height="42" width="100">
<g clip-path="url(#clip0_518_1015)" id="BPN_USA">
<path fill="#FF4438" d="M53.0185 5.9593H36.1143L37.1636 0H54.0678L53.0185 5.9593Z" id="Vector"></path>
<path fill="#FF4438" d="M50.9197 17.8779H34.0155L35.0647 11.9186H51.9689L50.9197 17.8779Z" id="Vector_2"></path>
<path fill="#FF4438" d="M48.8208 29.7965H31.9167L32.9659 23.8372H49.8701L48.8208 29.7965Z" id="Vector_3"></path>
<path fill="#FF4438" d="M46.722 41.7152H0L1.04924 35.7559H47.7712L46.722 41.7152Z" id="Vector_4"></path>
<path fill="#2D2A26" d="M7.34577 0L2.09775 29.8034H31.9156L37.1636 0H7.34577ZM20.516 5.16703L21.3497 2.60277L22.1834 5.16703H24.8809L22.6984 6.75194L23.5322 9.3162L21.3497 7.73129L19.1673 9.3162L20.001 6.75194L17.8186 5.16703H20.516ZM11.6758 5.16703L12.5095 2.60277L13.3432 5.16703H16.0406L13.8582 6.75194L14.6919 9.3162L12.5095 7.73129L10.327 9.3162L11.1608 6.75194L8.97833 5.16703H11.6758ZM11.55 26.8323L9.36757 25.2474L7.18514 26.8323L8.01886 24.268L5.83642 22.6831H8.53385L9.36757 20.1189L10.2013 22.6831H12.8987L10.7163 24.268L11.55 26.8323ZM13.0565 18.0741L10.874 16.4892L8.69158 18.0741L9.52531 15.5098L7.34287 13.9249H10.0403L10.874 11.3606L11.7077 13.9249H14.4052L12.2227 15.5098L13.0565 18.0741ZM20.3902 26.8323L18.2078 25.2474L16.0254 26.8323L16.8591 24.268L14.6767 22.6831H17.3741L18.2078 20.1189L19.0415 22.6831H21.739L19.5565 24.268L20.3902 26.8323ZM19.7143 16.4892L17.5318 18.0741L18.3655 15.5098L16.1831 13.9249H18.8805L19.7143 11.3606L20.548 13.9249H23.2454L21.063 15.5098L21.8967 18.0741L19.7143 16.4892ZM28.9336 26.8323L26.7511 25.2474L24.5687 26.8323L25.4024 24.268L23.22 22.6831H25.9174L26.7511 20.1189L27.5848 22.6831H30.2823L28.0998 24.268L28.9336 26.8323ZM30.44 18.0741L28.2576 16.4892L26.0751 18.0741L26.9089 15.5098L24.7264 13.9249H27.4238L28.2576 11.3606L29.0913 13.9249H31.7887L29.6063 15.5098L30.44 18.0741ZM29.8927 7.73129L27.7102 9.3162L28.544 6.75194L26.3615 5.16703H29.0589L29.8927 2.60277L30.7264 5.16703H33.4238L31.2414 6.75194L32.0751 9.3162L29.8927 7.73129Z" id="Vector_5"></path>
<path fill="#2D2A26" d="M53.8188 0L46.5039 41.7151H92.6851L100 0H53.8188ZM91.4479 37.3306C91.187 38.8181 89.8946 39.9035 88.3834 39.9035H52.5311C50.598 39.9035 49.133 38.1602 49.4666 36.2568L55.0556 4.38493C55.3165 2.89701 56.6089 1.81195 58.1201 1.81195H93.972C95.9051 1.81195 97.3702 3.55524 97.0365 5.45873L91.4476 37.3306H91.4479Z" id="Vector_6"></path>
<path fill="#2D2A26" d="M89.7391 14.7579C90.5554 10.1306 89.4614 8.52429 85.3448 8.21843C84.5886 8.16757 82.1976 8.12931 78.172 8.10364H59.845L55.3449 33.6115H73.7101C82.2872 33.5733 82.7149 33.5352 84.2566 33.0379C86.6488 32.2732 87.9361 30.3992 88.5768 26.7662C89.2986 22.6741 88.5288 21.1829 85.263 20.6093C87.9546 19.8828 89.098 18.3912 89.7387 14.7582L89.7391 14.7579ZM81.303 25.2746C81.114 26.3455 80.7451 26.9191 80.0473 27.1868C79.6332 27.3653 77.8808 27.4673 74.7898 27.4927H63.809L64.5576 23.2476H75.5385C78.5439 23.2731 80.1697 23.3113 80.4158 23.3624C81.2623 23.5535 81.512 24.089 81.303 25.2746ZM81.9724 16.058C81.8103 16.9759 81.428 17.6258 80.8134 17.8554C80.2756 18.085 79.1525 18.1613 76.3977 18.1613H65.455L66.1702 14.1076H77.1129C80.6263 14.1458 80.7411 14.1458 81.1485 14.2224C81.9183 14.4135 82.1614 14.9874 81.9724 16.058Z" id="Vector_7"></path>
</g>
<defs>
<clipPath id="clip0_518_1015">
<rect fill="white" height="41.7151" width="100"></rect>
</clipPath>
</defs>
</svg>
