<svg xmlns="http://www.w3.org/2000/svg" fill="none" viewBox="0 0 100 100" height="100" width="100">
<g id="Frame 2195">
<g id="Group 2225">
<path fill="#231F20" d="M68.5745 52.0915C67.976 52.7149 67.39 53.3633 66.8164 54.0117V69.7605C68.8239 66.8551 70.6195 63.8251 72.1906 60.6829V51.4182H69.2728C69.0484 51.6426 68.8115 51.8546 68.587 52.0915H68.5745ZM75.919 51.867C75.9688 51.7174 76.0312 51.5678 76.0811 51.4182H75.919V51.867ZM57.7013 66.3189V80.3594C59.6216 78.5513 61.4047 76.6436 63.0631 74.6485V58.5007C62.0406 59.81 61.0431 61.1567 60.0954 62.5408C59.26 63.7628 58.4619 65.0222 57.6888 66.294L57.7013 66.3189ZM48.5987 63.9248L49.6337 65.3214C49.7334 65.1718 49.8207 65.0346 49.9204 64.885C50.0327 64.7104 50.1574 64.5234 50.2696 64.3488C51.4417 62.6156 52.6886 60.9198 53.973 59.2613V51.4057H48.6112V63.9124L48.5987 63.9248ZM53.5989 74.0499L50.6437 80.11L49.9204 79.1L48.5987 77.2795V83.1525C49.0351 83.5266 49.4715 83.8882 49.9204 84.2498C50.4566 84.6738 50.9928 85.0853 51.5415 85.5092C52.3644 84.8982 53.1749 84.2872 53.9605 83.6513V73.227L53.8857 73.4016C53.7859 73.6135 53.6737 73.8754 53.5989 74.0499ZM39.4836 73.7507C41.1296 75.8455 42.9251 77.8406 44.8454 79.7484V72.0798L40.1819 65.5334L44.8454 62.1293V51.4306H39.4836V73.7632V73.7507ZM30.381 58.7127C31.9272 62.0919 33.7103 65.3713 35.7428 68.5011V51.4182H30.381V58.7127ZM57.7013 51.4182V54.7724C58.7238 53.6252 59.7587 52.503 60.8311 51.4182H57.7013ZM81.0813 19.771C79.4478 18.8982 77.7021 18.1126 75.919 17.3893C74.697 16.8906 73.45 16.4292 72.1782 16.0053C70.4325 15.4192 68.6493 14.8955 66.8039 14.4466C65.5694 14.1473 64.3225 13.8855 63.0631 13.6486C61.2924 13.3119 59.5094 13.0376 57.7013 12.8256C57.4893 12.8007 57.2649 12.7882 57.0529 12.7633C56.0179 12.7009 54.9955 12.6635 53.9605 12.651C52.6138 12.6261 51.2547 12.651 49.908 12.7009C49.4716 12.7133 49.0226 12.7383 48.5862 12.7633C47.3268 12.8381 46.0799 12.9254 44.8454 13.0625C43.0249 13.262 41.2418 13.5488 39.4836 13.8855C38.2242 14.1349 36.9773 14.4092 35.7428 14.7209C33.9098 15.1947 32.1143 15.7434 30.381 16.3918C29.0967 16.8657 27.8498 17.3769 26.6402 17.9505C25.2312 18.6114 23.8596 19.2972 22.5503 20.0828C22.5254 23.5368 22.5004 27.0032 22.7373 30.345H80.8942C81.1561 26.9035 81.1311 23.3373 81.0937 19.7835L81.0813 19.771ZM39.4836 22.1526L37.2267 23.7986L38.6357 28.1254L35.7428 26.0306L34.9448 25.457L31.2663 28.1379L32.6754 23.8111L30.381 22.1402L28.9969 21.1301H33.5482L34.9573 16.8033L35.7553 19.2473L36.3663 21.1301H40.9176L39.4961 22.1651L39.4836 22.1526ZM53.9605 27.8386L54.0478 28.1254L53.9605 28.0631L49.908 25.1203L49.8456 25.083L48.5862 25.9932L45.6435 28.1254L47.252 23.1876L44.8454 21.4419L43.0499 20.1326H48.2371L48.5862 19.0728L49.8456 15.1947L49.908 15.3818L51.4542 20.1326H56.6414L53.9605 22.0903L52.4517 23.1876L53.9605 27.8386ZM69.3601 28.1254L66.8039 26.2675L65.6692 25.4446L63.0631 27.3399L61.9907 28.1254L63.0631 24.8211L63.3998 23.7986L63.0631 23.5617L59.7089 21.1301H64.2602L65.6692 16.8033L66.8039 20.2822L67.0782 21.1301H71.6295L67.9511 23.8111L69.3601 28.1379V28.1254Z" id="Vector"></path>
<path fill="#231F20" d="M57.7016 56.6428C56.9659 57.5032 56.2427 58.3635 55.5444 59.2489C55.0082 59.9347 54.4845 60.633 53.9608 61.3188C53.0505 62.5408 52.1527 63.7752 51.3048 65.0471C50.831 65.7579 50.3696 66.4811 49.9207 67.2043C49.8584 67.3165 49.7836 67.4163 49.7087 67.5285L48.599 66.0197L46.155 62.7154L44.8582 63.663L41.9279 65.8077L44.8582 69.9226L47.8009 74.0499L48.599 75.1597L49.9207 76.9803L50.4444 77.6909L52.452 73.5761C52.5268 73.3766 52.6515 73.1022 52.7637 72.8653L53.1129 72.1172C53.3498 71.6184 53.5992 71.1072 53.861 70.6084C53.8984 70.5336 53.9358 70.4712 53.9733 70.3964C54.4596 69.4612 54.9583 68.5385 55.4696 67.6283C56.1803 66.3813 56.9285 65.1593 57.714 63.9498C58.1629 63.2391 58.6118 62.5408 59.0857 61.8425C60.3451 59.997 61.6793 58.2014 63.0759 56.4557C64.2729 54.9719 65.5198 53.5379 66.8167 52.1413C67.0536 51.8919 67.2655 51.6426 67.5025 51.3932H62.5771C60.8812 53.0641 59.2602 54.8098 57.714 56.6178L57.7016 56.6428ZM37.3641 40.283C37.3641 39.5473 37.227 38.9363 36.6284 38.4376C36.3541 38.2006 36.0548 38.076 35.7431 37.9762C35.4813 37.9014 35.2194 37.8515 34.9326 37.8141C35.2443 37.7268 35.5062 37.6271 35.7431 37.5024C36.5287 37.0784 36.8529 36.4051 36.8529 35.5572C36.8529 34.5097 36.3915 33.9237 35.7431 33.5995C35.182 33.3127 34.4712 33.2254 33.7854 33.2254H25.2689V43.2383H32.9624C33.8353 43.2383 34.8703 43.1884 35.7431 42.7893C36.1297 42.6148 36.4913 42.3779 36.7781 42.0287C37.3392 41.3305 37.3641 40.5823 37.3641 40.283ZM28.885 35.4823H32.5011C33.0497 35.4823 33.4238 35.7068 33.4238 36.243C33.4238 36.8415 32.9874 37.041 32.4263 37.041H28.885V35.4823ZM32.6383 40.9564H28.8476V39.2107H32.8876C33.1245 39.2107 33.7979 39.2232 33.7979 40.0337C33.7979 40.732 33.3241 40.9564 32.6383 40.9564ZM45.8308 41.6048L46.367 43.2383H50.3073L49.9083 42.3155L48.5865 39.2606L45.9804 33.2379H41.8905L39.4714 38.8241L37.5512 43.2507H41.4541L41.9902 41.6172H45.8183L45.8308 41.6048ZM43.9354 36.006L44.8582 38.7243L45.0826 39.3977H42.7509L43.923 36.006H43.9354ZM54.7339 39.5972H56.6292L57.7016 41.4926L58.6991 43.2383H62.6519L60.158 39.2356C62.3028 38.7867 62.4524 37.0285 62.4524 36.4051C62.4524 35.4948 62.1282 34.8963 61.9411 34.6095C61.1306 33.3376 59.8463 33.2379 58.4996 33.2379H51.1302V43.2507H54.7339V39.6097V39.5972ZM54.7339 35.4948H57.714C58.1006 35.4948 58.4996 35.5572 58.7365 35.9063C58.8737 36.1058 58.8986 36.3303 58.8986 36.4175C58.8986 36.5298 58.8862 36.7542 58.6991 36.9787C58.5121 37.2031 58.2128 37.3028 57.714 37.3278C57.6268 37.3278 57.5395 37.3278 57.4273 37.3278H54.7339V35.4823V35.4948ZM67.7394 39.3603H74.186V37.1033H67.7394V35.4574H74.7097V33.2129H64.1482V43.2258H74.8344V40.9564H67.7269V39.3478L67.7394 39.3603ZM26.6405 45.8818C26.84 45.7571 27.1642 45.7322 27.2764 45.7322C27.663 45.7322 28.1742 45.807 28.3737 46.181L29.2591 45.9566C28.9598 45.4204 28.3987 45.0588 27.3014 45.0588C27.0645 45.0588 26.84 45.0837 26.6405 45.1211C26.2041 45.2209 25.8549 45.4204 25.6804 45.7446C25.6056 45.8817 25.5557 46.0438 25.5557 46.2309C25.5557 46.7047 25.8425 46.9541 26.042 47.0663C26.0794 47.0912 26.1168 47.1162 26.1417 47.1287C26.2789 47.1911 26.441 47.2409 26.6405 47.2908C26.865 47.3407 27.1393 47.3781 27.5009 47.4405C27.9623 47.5153 28.3239 47.5651 28.3239 47.8644C28.3239 48.3382 27.5757 48.3632 27.3887 48.3632C27.1517 48.3632 26.8774 48.3258 26.6405 48.226C26.5408 48.1886 26.4285 48.1263 26.3537 48.0639C26.2664 47.9891 26.1916 47.8893 26.1293 47.7771L25.2814 47.9891C25.5557 48.5128 25.9796 48.8495 26.653 48.9866C26.8525 49.024 27.0769 49.049 27.3263 49.049C28.274 49.049 29.2341 48.8245 29.2341 47.7896C29.2341 46.9541 28.461 46.8045 27.9747 46.7297C27.7004 46.6798 27.0395 46.5801 26.7652 46.5053C26.7153 46.4928 26.6904 46.4678 26.653 46.4428C26.5532 46.393 26.4784 46.3182 26.4784 46.181C26.4784 46.0439 26.5532 45.9565 26.653 45.8942L26.6405 45.8818ZM31.3414 45.8693H32.7255V48.9243H33.6732V45.8693H35.0573V45.1835H31.3414V45.8693ZM39.2345 45.1835H38.2245L36.4165 48.9243H37.4389L37.7507 48.2135H39.6709L39.9827 48.9243H41.0301L39.4714 45.7072L39.222 45.1835H39.2345ZM38.0624 47.5651L38.7233 46.1062L39.3717 47.5651H38.0624ZM44.8582 45.807L44.322 45.1959H43.3868V48.9367H44.2721V46.3057L44.8582 46.9666L46.579 48.9243H47.5017V45.1835H46.6164V47.802L44.8582 45.807ZM53.9608 48.5003C53.9608 48.5003 54.0107 48.4629 54.0356 48.438C54.26 48.226 54.5843 47.8021 54.5843 47.0414C54.5843 46.5676 54.4471 46.0688 54.1104 45.7197C54.0605 45.6698 54.0107 45.6448 53.9608 45.5949C53.5618 45.2707 53.0755 45.1835 52.5393 45.1835H50.4818V48.9243H52.5019C53.1253 48.9243 53.5618 48.812 53.9483 48.4878L53.9608 48.5003ZM51.4295 45.8568H52.5143C52.8385 45.8568 53.1004 45.8817 53.3124 46.0688C53.649 46.3556 53.6615 46.8918 53.6615 47.0165C53.6615 48.0265 53.1877 48.2759 52.5268 48.2759H51.4295V45.8568ZM57.7016 46.7795L56.6541 48.9367H57.6766L57.7016 48.8869L58.0008 48.226H59.9211L60.2329 48.9367H61.2803L59.4722 45.1959H58.4622L57.7016 46.7795ZM59.6094 47.5776H58.3001L58.961 46.1187L59.6094 47.5776ZM66.8042 47.6774L66.7543 47.615L66.5922 47.3905C66.667 47.3781 66.7418 47.3531 66.8042 47.3407C67.091 47.2659 67.3279 47.1287 67.4651 46.817C67.5648 46.605 67.5648 46.4179 67.5648 46.3182C67.5648 46.0065 67.4526 45.7321 67.2406 45.5326C67.1284 45.4204 66.9912 45.3206 66.8167 45.2707C66.8167 45.2707 66.8166 45.2707 66.8042 45.2707C66.6545 45.2208 66.5174 45.2084 66.1932 45.2084H63.612V48.9492H64.5472V47.4405H65.6196L66.0934 48.1636L66.6171 48.9492H67.7269L67.4775 48.6126L66.7917 47.6774H66.8042ZM66.0934 46.7795H64.5472V45.8568H66.056C66.2555 45.8568 66.4675 45.8942 66.5673 46.0937C66.6047 46.1561 66.6171 46.2309 66.6171 46.3307C66.6171 46.7297 66.268 46.7795 66.0934 46.7795ZM73.9117 45.7446C73.9117 45.7446 73.7995 45.6573 73.7371 45.6074C73.3381 45.2957 72.8643 45.2084 72.3405 45.2084H70.2831V48.9492H72.3031C72.9765 48.9492 73.4254 48.837 73.8244 48.4629C74.0488 48.251 74.3731 47.8269 74.3731 47.0663C74.3731 46.9541 74.373 46.8419 74.3481 46.7297C74.2982 46.3681 74.1611 46.0064 73.8992 45.7446H73.9117ZM73.388 47.5776C73.2633 48.039 72.9765 48.226 72.5775 48.2759C72.4902 48.2759 72.4154 48.2884 72.3156 48.2884H71.2183V45.8693H72.3031C72.6273 45.8693 72.8892 45.8942 73.1012 46.0813C73.1136 46.0937 73.1261 46.1186 73.1386 46.1311C73.4378 46.4304 73.4503 46.9167 73.4503 47.0289C73.4503 47.2409 73.4254 47.428 73.388 47.5776ZM85.8947 16.8407C75.8943 10.9801 64.0983 8 50.7811 8C50.4943 8 50.195 8.00001 49.8958 8.01248C48.4743 8.02495 47.0278 8.06234 45.5689 8.14963H45.4816H45.3944C35.3316 8.37407 25.0694 11.2794 14.1213 17.0403C13.4854 27.315 15.4555 36.8914 17.5629 45.8568C17.9494 47.1287 18.3609 48.4005 18.7848 49.635C18.9968 50.246 19.2213 50.832 19.4457 51.4306C25.9921 69.324 36.8155 83.6015 49.8833 91.4821C49.9207 91.507 49.9706 91.5319 50.008 91.5693C63.1881 83.6762 74.0863 69.3615 80.6327 51.4431C80.8446 50.8695 81.0566 50.3083 81.2561 49.7223C81.6801 48.5003 82.0791 47.2659 82.4532 46.0189C84.4857 37.3777 86.5431 27.3897 85.8698 16.8407H85.8947ZM80.882 30.3575C80.8197 31.2179 80.7324 32.0657 80.6327 32.9012C80.5204 33.7865 80.3957 34.6718 80.2212 35.5447C79.286 40.9439 77.9143 46.2808 76.0813 51.4555C76.0315 51.6052 75.9691 51.7548 75.9193 51.9044C74.8344 54.9095 73.6 57.8648 72.1785 60.7202C70.6073 63.8625 68.8242 66.8926 66.8042 69.7979C65.6445 71.4813 64.3851 73.1148 63.0634 74.6984C61.405 76.6934 59.6094 78.5888 57.7016 80.4093C56.5045 81.544 55.2576 82.6413 53.9608 83.6888C53.1752 84.3247 52.3647 84.9482 51.5417 85.5467C51.018 85.9332 50.5068 86.3322 49.9706 86.7063C49.9581 86.6938 49.9332 86.6813 49.9207 86.6689C37.0275 77.7408 28.7603 65.2341 23.8723 51.468C22.0393 46.2808 20.6552 40.9315 19.72 35.5198C19.3958 33.8489 19.1963 32.1281 19.0592 30.3824C18.7973 26.9409 18.8223 23.3746 18.8472 19.7959C27.5258 14.5838 38.6983 12.2271 49.9207 12.3643C52.3024 12.3892 54.6965 12.5513 57.0656 12.8007C57.2776 12.8256 57.5021 12.838 57.714 12.863C59.5221 13.075 61.3177 13.3493 63.0759 13.686C64.3353 13.9229 65.5822 14.1848 66.8167 14.4841C68.6496 14.933 70.4327 15.4691 72.1909 16.0427C73.4628 16.4667 74.7097 16.928 75.9317 17.4268C77.7148 18.15 79.4605 18.9356 81.094 19.8084C81.1189 23.3622 81.1439 26.9284 80.8945 30.37L80.882 30.3575Z" id="Vector_2"></path>
</g>
</g>
</svg>
