<svg width="126" height="328" viewBox="0 0 126 328" fill="none" xmlns="http://www.w3.org/2000/svg"><path fill-rule="evenodd" clip-rule="evenodd" d="M61.1408 192.21C50.2842 211.046 44.6317 232.641 27.5546 246.255C7.1243 262.543 -17.0431 274.638 -43.6132 275.723C-74.9769 277.003 -117.311 279.89 -133.162 252.815C-150.106 223.874 -118.188 191.247 -111.987 158.936C-108.397 140.23 -111.077 121.483 -104.533 103.636C-97.0178 83.1434 -89.3363 61.8749 -71.6407 48.9119C-51.7306 34.3266 -26.0523 21.6347 -1.68986 28.2983C22.4065 34.8892 31.488 63.0772 48.1007 81.6637C63.6685 99.0811 89.7739 110.827 92.4649 133.64C95.1494 156.398 72.4748 172.546 61.1408 192.21Z" fill="#F8F4E9"></path><g clip-path="url(#clip0_5981_10067)"><path d="M53.9388 143.17C52.7591 138.587 54.7285 133.989 58.2589 133.105C62.0129 132.154 65.8661 134.792 66.9402 139.058C67.9172 142.936 65.745 146.906 62.0999 147.8C58.3514 148.694 54.8489 146.721 53.9388 143.17Z" fill="#212529"></path><path d="M-1.31242 89.6942C-2.14418 89.8452 -2.98657 89.9301 -3.83173 89.9484C-7.04347 89.8844 -8.71143 88.3718 -9.06899 85.1833C-9.35719 82.5627 -9.69138 79.8993 -8.29391 77.4411C-7.82265 76.6249 -7.40486 75.609 -6.3477 76.8506C-5.89195 77.4185 -5.46951 77.0638 -5.04198 77.0113C-3.51876 76.8269 -1.97778 76.8455 -0.459466 77.0668C2.79783 77.5326 4.43222 78.9714 4.72042 81.592C5.07453 84.7676 3.26008 88.1931 0.655758 89.16C0.204327 89.3292 -0.282403 89.4183 -1.31242 89.6942Z" fill="#212529"></path><path d="M61.4075 71.0807C65.0239 69.9254 68.1849 69.5683 70.774 72.7936C72.1348 74.4989 72.4541 75.7933 71.2219 77.5034C69.1121 80.6421 65.6405 82.596 61.8628 82.7711C57.9903 83.0222 55.1699 78.5478 56.8918 74.9057C57.8369 72.8447 59.0776 71.0633 61.4075 71.0807Z" fill="#212529"></path><path d="M61.1852 101.486C60.3719 98.8883 60.7432 95.9737 60.2543 93.1447C60.1795 92.6462 60.3067 92.1384 60.6076 91.734C60.9085 91.3295 61.3583 91.0618 61.8573 90.9903C63.3483 90.6321 64.8492 90.2852 66.37 90.064C68.7273 89.7259 71.0308 90.9588 72.0568 93.1078C73.2429 95.8604 72.8133 98.8666 70.934 100.453C69.5997 101.577 68.2178 102.651 66.819 103.688C63.7647 105.962 62.13 105.372 61.1852 101.486Z" fill="#212529"></path><path d="M24.2208 136.602C22.324 137.248 20.459 136.803 18.713 135.746C16.2487 134.274 15.8081 132.011 17.4552 129.686C18.2352 128.581 19.4281 127.702 19.3287 126.121C19.3173 125.924 19.6347 125.666 19.8517 125.498C21.4704 124.174 26.5355 124.28 28.2788 125.662C29.8387 126.9 30.0473 129.686 28.841 132.266C27.5318 134.976 26.4563 136.01 24.2208 136.602Z" fill="#212529"></path><path d="M20.4224 155.359L19.7786 155.531C16.6181 156.302 13.4715 155.4 12.2378 153.371C11.0041 151.342 11.8093 147.214 13.7765 145.182C14.6251 144.306 15.6999 143.811 16.6706 144.911C17.2772 145.604 17.8338 145.441 18.5257 145.345C22.7159 144.76 24.0984 145.542 24.7468 148.915C25.4776 152.569 24.2935 154.356 20.4224 155.359Z" fill="#212529"></path><path d="M43.5865 57.1299C39.0612 58.2665 35.9414 56.4599 35.3274 52.4431C34.7987 48.9762 37.4786 47.3129 39.5423 45.5386C41.0589 44.264 43.2687 44.252 44.7991 45.51C47.0097 47.0093 48.0476 49.7303 47.3969 52.3209C46.9471 54.6079 46.1842 56.7305 43.5865 57.1299Z" fill="#212529"></path><path d="M12.1822 104.832L11.371 105.049C6.80678 106.272 6.38565 105.937 6.42881 101.102C6.43666 100.127 6.45738 99.1487 6.52834 98.1775C6.66596 97.6375 6.36722 97.082 5.84078 96.899C4.23932 96.0724 5.05855 95.087 6.0682 94.6578C8.0585 93.8031 10.1703 93.2652 12.3269 93.0635C13.3339 92.9523 14.2808 93.5626 14.5954 94.5256C15.2743 96.0549 15.99 97.5673 16.7234 99.0682C18.2158 102.063 17.6266 103.366 14.4031 104.237L12.1822 104.832Z" fill="#212529"></path><path d="M75.2706 115.789C76.328 120.121 73.0118 124.225 68.7474 123.864C67.3778 123.748 66.2 123.215 65.9785 121.77C65.6444 119.596 65.4976 117.4 65.3489 115.197C65.3197 114.805 65.5137 114.422 65.3818 113.981C64.7258 111.79 65.1757 111.049 67.3817 110.527C70.6504 109.747 74.4206 112.256 75.2706 115.789Z" fill="#212529"></path><path d="M9.35063 123.337C7.41082 123.539 5.47665 123.788 3.53075 123.916C1.4024 124.059 0.474155 123.273 0.522717 121.162C0.631828 119.154 0.846389 117.152 1.16551 115.167C1.24982 114.595 1.67029 114.131 2.23051 113.991C4.27353 113.582 6.54461 112.89 8.34726 113.953C10.4803 115.096 11.8803 117.251 12.0582 119.665C12.1656 121.534 11.4117 122.943 9.35063 123.337Z" fill="#212529"></path><path d="M42.9197 91.8488C42.6071 91.0425 42.6946 89.9013 41.9507 88.9277C41.2068 87.9541 41.8473 87.2029 42.7921 86.7634C44.499 85.9749 46.2273 85.2151 47.9561 84.4827C48.53 84.2002 49.2044 84.2093 49.7704 84.5072C51.2632 85.3146 53.6599 89.4954 53.4239 91.0352C53.0201 93.648 51.1401 94.7175 48.835 95.3076C48.3651 95.4335 47.8887 95.5611 47.4187 95.6871C44.8299 96.3255 44.0171 95.8672 43.3254 93.2857C43.191 92.887 43.0888 92.4797 42.9197 91.8488Z" fill="#212529"></path><path d="M61.6857 51.6731C63.697 51.0168 65.0769 51.4543 65.8437 53.5948C66.2852 54.8565 67.3463 55.752 67.5797 57.1384C68.0251 59.779 67.1597 61.2873 64.5821 62.0194C63.434 62.3306 62.2366 62.4172 61.0557 62.2743C59.373 62.0973 58.3339 61.258 58.1464 59.5281C57.9589 57.7982 57.8462 56.1931 57.7034 54.5272C57.6468 53.8008 58.1007 53.132 58.7966 52.9164C59.7818 52.473 60.7258 52.0821 61.6857 51.6731Z" fill="#212529"></path><path d="M-3.20022 138.94C-3.82779 136.134 -2.64209 133.581 -0.499052 133.159C1.84527 132.689 6.30302 135.034 6.72819 136.956C7.31782 139.62 5.46362 142.125 2.43313 142.84C-0.59737 143.555 -2.4466 142.319 -3.20022 138.94Z" fill="#212529"></path><path d="M34.6146 120.776C34.0247 118.809 34.3275 116.683 35.4431 114.958C36.1183 113.77 37.096 112.887 38.3938 114.306C38.8138 114.766 39.2593 114.626 39.7208 114.675C42.5581 114.963 43.571 116.168 43.6568 119.064C43.7427 121.96 42.0849 124.218 39.5648 124.521C37.0446 124.824 35.346 123.506 34.6146 120.776Z" fill="#212529"></path><path d="M20.4346 81.0658C17.5442 81.8403 15.5212 80.754 14.7564 78.0541C13.8595 74.7066 14.8365 73.2028 18.4866 72.2248C20.6676 71.6041 22.948 72.8244 23.6416 74.9833C24.4216 77.8171 23.0916 80.3469 20.4346 81.0658Z" fill="#212529"></path><path d="M41.6806 142.742C41.051 142.831 40.4145 142.861 39.7793 142.831C37.2487 142.605 36.2515 140.892 37.2602 138.579C37.8767 137.172 39.0681 136.108 39.1304 134.332C39.163 133.295 40.512 133.334 41.3771 133.73C43.0482 134.467 44.4204 135.748 45.2697 137.365C46.4317 139.744 45.1561 141.859 41.6806 142.742Z" fill="#212529"></path><path d="M49.3575 123.574C48.7026 120.872 49.9606 118.099 52.0429 117.528C54.0579 116.988 56.4454 118.508 56.9589 120.682C57.6191 123.506 56.4991 125.738 54.118 126.328C51.7369 126.918 49.9236 125.892 49.3575 123.574Z" fill="#212529"></path><path d="M40.5269 77.4346C41.279 80.2414 39.9837 82.3341 37.5355 82.7762C35.0872 83.2184 33.7029 81.9402 33.3983 79.3102C33.2465 77.971 33.5174 76.5874 33.4278 75.197C33.314 73.4335 36.0261 72.4308 37.6469 73.6387C38.9554 74.5972 39.9563 75.9163 40.5269 77.4346Z" fill="#212529"></path><path d="M20.8107 91.4803C20.7425 90.8136 20.632 90.1518 20.4799 89.499C20.0004 87.7094 21.1309 87.4479 22.4084 87.3747C22.9995 87.3405 23.531 87.7017 24.2219 87.4476C26.558 86.5871 28.0187 87.1202 28.7104 88.9289C29.5113 90.9671 28.6909 93.2841 26.7858 94.3641C24.1125 95.7429 21.5231 94.5254 20.8107 91.4803Z" fill="#212529"></path><path d="M43.4423 66.7868C42.8038 64.198 43.4338 62.9183 45.5634 62.3684C48.4045 61.6416 50.8653 62.7141 51.4201 64.939C51.7288 65.9189 51.604 66.9841 51.0771 67.8662C50.5502 68.7482 49.6714 69.363 48.6621 69.5556C46.0158 70.2371 44.0389 69.1937 43.4423 66.7868Z" fill="#212529"></path><path d="M35.59 104.949C33.3393 105.511 31.6502 104.563 31.0938 102.435C30.2934 99.4477 30.8209 98.2231 33.0616 97.6503C35.7783 96.9224 37.9422 97.8398 38.3817 99.8403C38.9009 102.164 37.6586 104.429 35.59 104.949Z" fill="#212529"></path><path d="M21.2838 113.102C20.7273 110.87 21.5483 108.063 22.8722 107.674C24.4455 107.211 27.7733 109.175 28.1367 110.789C28.4097 111.774 28.2763 112.826 27.7663 113.711C27.2563 114.596 26.4125 115.24 25.4239 115.497C23.3149 116.021 21.7868 115.133 21.2838 113.102Z" fill="#212529"></path><path d="M24.4846 57.7082C26.7635 57.0976 28.3735 57.9564 28.8555 59.9869C29.4087 62.3088 28.7393 64.0337 27.0982 64.501C24.9867 65.0668 22.3062 63.4322 21.7936 61.2098C21.3978 59.5012 22.3597 58.2499 24.4846 57.7082Z" fill="#212529"></path><path d="M7.02167 70.0185C5.54389 70.2971 4.29485 70.1419 3.45909 68.7996C2.62334 67.4573 2.86185 64.4334 3.75466 63.5939C3.90433 63.4572 4.20113 63.2259 4.25356 63.267C5.80262 64.4389 7.81579 63.1198 9.33599 64.2097C10.8562 65.2996 10.0061 68.4874 8.11202 69.5814C7.76085 69.756 7.39623 69.9022 7.02167 70.0185Z" fill="#212529"></path><path d="M47.7842 103.282C49.7726 102.798 52.0225 103.83 52.5006 105.434C53.006 107.32 51.7762 109.658 50.0024 110.119C48.2286 110.581 46.8765 109.68 46.3976 107.635C45.7582 104.991 46.1837 103.67 47.7842 103.282Z" fill="#212529"></path><path d="M52.4066 152.233C53.0966 154.808 52.3806 156.745 50.5125 157.266C49.706 157.512 48.8343 157.421 48.0967 157.012C47.3591 156.604 46.8188 155.914 46.5993 155.1C46.1515 153.274 47.4059 150.385 48.8363 149.981C50.5161 149.503 51.8935 150.369 52.4066 152.233Z" fill="#212529"></path><path d="M31.3851 154.429C30.8382 151.899 31.5089 150.256 33.1643 149.868C33.8757 149.676 34.6349 149.787 35.2616 150.174C35.8883 150.562 36.3266 151.192 36.4724 151.914C36.8998 153.869 35.6817 155.941 33.9319 156.286C32.3399 156.602 31.5778 155.792 31.3851 154.429Z" fill="#212529"></path></g><defs><clipPath id="clip0_5981_10067"><rect width="159.952" height="133.293" fill="white" transform="translate(-63.5042 61.0197) rotate(-15)"></rect></clipPath></defs></svg>